<?xml version="1.0" encoding="utf-8"?>
<!-- Generator: Adobe Illustrator 21.0.2, SVG Export Plug-In . SVG Version: 6.00 Build 0)  -->
<svg version="1.1" id="Layer_1" xmlns="http://www.w3.org/2000/svg" xmlns:xlink="http://www.w3.org/1999/xlink" x="0px" y="0px"
	 viewBox="0 0 512 512" style="enable-background:new 0 0 512 512;" xml:space="preserve">
<title>on off2</title>
<path d="M256,0C114.6,0,0,114.6,0,256s114.6,256,256,256s256-114.6,256-256S397.4,0,256,0z M246,115.6c0-5.5,4.5-10,10-10
	c5.5,0,10,4.5,10,10v165.4c0,5.5-4.5,10-10,10c-5.5,0-10-4.5-10-10V115.6z M256,406c-82.7,0-150-64.4-150-143.4
	c0-29.7,9.6-58.7,27.3-82.5c17.6-23.8,41.9-41.8,69.9-51.8c5.1-1.9,10.8,0.6,12.9,5.6c1.9,4.9-0.6,10.3-5.5,12.2
	c-0.1,0-0.2,0.1-0.4,0.1c-50.4,18.1-84.2,64.9-84.2,116.4c0,68.6,58.3,124.3,130,124.3s130-55.8,130-124.3
	c0-51.4-33.8-98.1-84-116.3c-4.9-1.7-7.6-7-5.9-11.9c0-0.1,0.1-0.2,0.1-0.4c2.1-5,7.8-7.4,12.9-5.6c27.9,10,52.1,28,69.7,51.8
	c17.7,23.8,27.2,52.7,27.2,82.4C406,341.6,338.7,406,256,406z"/>
</svg>
