<?xml version="1.0" encoding="utf-8"?>
<!-- Generator: Adobe Illustrator 21.0.2, SVG Export Plug-In . SVG Version: 6.00 Build 0)  -->
<svg version="1.1" id="Layer_1" xmlns="http://www.w3.org/2000/svg" xmlns:xlink="http://www.w3.org/1999/xlink" x="0px" y="0px"
	 viewBox="0 0 100 98.4" style="enable-background:new 0 0 100 98.4;" xml:space="preserve">
<path d="M49.6,34.2C43.8,34.2,39,39,39,44.8s4.8,10.6,10.6,10.6s10.6-4.8,10.6-10.6S55.4,34.2,49.6,34.2z"/>
<path d="M95.3,25.8c0,0-3.1-14.8-16.5-20C72.5,3.4,61,2.2,49.7,2.1C38.3,2.2,26.8,3.4,20.5,5.8C7.1,11,4,25.8,4,25.8
	c-2,8.4-2.7,16.9-2.6,24.4C1.4,57.8,2,66.3,4,74.7c0,0,3.1,14.8,16.5,20c6.3,2.4,17.8,3.6,29.1,3.7c11.3-0.1,22.8-1.2,29.1-3.7
	c13.4-5.2,16.5-20,16.5-20c2-8.4,2.7-16.9,2.6-24.4C97.9,42.7,97.3,34.2,95.3,25.8z M51.2,74.8c-0.4,0.4-0.9,0.5-1.4,0.5h-0.1h-0.1
	c-0.5,0-1-0.1-1.4-0.5C28.7,59.9,29.4,46.1,29.5,44.3c0.1-11,9-19.8,20-19.8h0.1h0.1c11,0,19.8,8.9,20,19.8
	C70,46.1,70.6,59.9,51.2,74.8z"/>
</svg>
