<?xml version="1.0" encoding="utf-8"?>
<!-- Generator: Adobe Illustrator 21.0.2, SVG Export Plug-In . SVG Version: 6.00 Build 0)  -->
<svg version="1.1" id="Layer_1" xmlns="http://www.w3.org/2000/svg" xmlns:xlink="http://www.w3.org/1999/xlink" x="0px" y="0px"
	 viewBox="0 0 100 99" style="enable-background:new 0 0 100 99;" xml:space="preserve">
<title>icon base</title>
<path d="M50,2L50,2C23.5,2,2,23.5,2,50c0,12.7,5.1,24.9,14.1,33.9C25,93,37.3,98,50,98l0,0c26.5,0,48-21.5,48-48
	c0-12.7-5.1-24.9-14.1-33.9C75,7,62.7,2,50,2z M77,51.5H51.5V77c0,0.8-0.7,1.5-1.5,1.5s-1.5-0.7-1.5-1.5V51.5H23
	c-0.8,0-1.5-0.7-1.5-1.5s0.7-1.5,1.5-1.5h25.5V23c0-0.8,0.7-1.5,1.5-1.5s1.5,0.7,1.5,1.5v25.5H77c0.8,0,1.5,0.7,1.5,1.5
	S77.8,51.5,77,51.5z"/>
</svg>
