<?xml version="1.0" encoding="utf-8"?>
<!-- Generator: Adobe Illustrator 21.0.2, SVG Export Plug-In . SVG Version: 6.00 Build 0)  -->
<svg version="1.1" id="Layer_1" xmlns="http://www.w3.org/2000/svg" xmlns:xlink="http://www.w3.org/1999/xlink" x="0px" y="0px"
	 viewBox="0 0 84 91" style="enable-background:new 0 0 84 91;" xml:space="preserve">
<style type="text/css">
	.st0{enable-background:new    ;}
</style>
<path d="M78.7,83.6L57.1,62.1c5.2-5.8,8.1-13.2,8.1-21.1c0-17.6-14.6-32-32.6-32S0,23.4,0,41s14.6,32,32.6,32
	c6.3,0,12.4-1.8,17.7-5.1l22.2,21.8c0.8,0.8,1.9,1.3,3.1,1.3s2.2-0.5,3.1-1.3s1.3-1.9,1.3-3S79.5,84.5,78.7,83.6z M56.6,41
	c0,12.9-10.7,23.4-23.8,23.4S9,53.9,9,41s10.7-23.4,23.8-23.4S56.6,28.1,56.6,41z"/>
<text transform="matrix(1 0 0 1 -10 115)" style="font-family:'HelveticaNeue-Bold'; font-size:5px;">Created by Jony</text>
<text transform="matrix(1 0 0 1 -10 120)" style="font-family:'HelveticaNeue-Bold'; font-size:5px;">from the Noun Project</text>
</svg>
